<svg width="43" height="39" viewBox="0 0 43 39" fill="none" xmlns="http://www.w3.org/2000/svg">
<path d="M1.7915 1.66669H8.95817L13.7598 23.9834C13.9237 24.7507 14.3724 25.44 15.0275 25.9305C15.6826 26.4211 16.5023 26.6817 17.3432 26.6667H34.7582C35.599 26.6817 36.4187 26.4211 37.0738 25.9305C37.7289 25.44 38.1777 24.7507 38.3415 23.9834L41.2082 10H10.7498M17.9165 35C17.9165 35.9205 17.1143 36.6667 16.1248 36.6667C15.1353 36.6667 14.3332 35.9205 14.3332 35C14.3332 34.0795 15.1353 33.3334 16.1248 33.3334C17.1143 33.3334 17.9165 34.0795 17.9165 35ZM37.6248 35C37.6248 35.9205 36.8227 36.6667 35.8332 36.6667C34.8437 36.6667 34.0415 35.9205 34.0415 35C34.0415 34.0795 34.8437 33.3334 35.8332 33.3334C36.8227 33.3334 37.6248 34.0795 37.6248 35Z" stroke="#DEDEDE" stroke-width="4" stroke-linecap="round" stroke-linejoin="round"/>
</svg>
