<svg width="20" height="20" viewBox="0 0 20 20" fill="none" xmlns="http://www.w3.org/2000/svg">
<g clip-path="url(#clip0_105_4802)">
<path d="M16 8.66663C16 13.3333 10 17.3333 10 17.3333C10 17.3333 4 13.3333 4 8.66663C4 7.07533 4.63214 5.5492 5.75736 4.42398C6.88258 3.29877 8.4087 2.66663 10 2.66663C11.5913 2.66663 13.1174 3.29877 14.2426 4.42398C15.3679 5.5492 16 7.07533 16 8.66663Z" stroke="#1E1E1E" stroke-width="1.6" stroke-linecap="round" stroke-linejoin="round"/>
<path d="M10 10.6666C11.1046 10.6666 12 9.7712 12 8.66663C12 7.56206 11.1046 6.66663 10 6.66663C8.89543 6.66663 8 7.56206 8 8.66663C8 9.7712 8.89543 10.6666 10 10.6666Z" stroke="#1E1E1E" stroke-width="1.6" stroke-linecap="round" stroke-linejoin="round"/>
</g>
<defs>
<clipPath id="clip0_105_4802">
<rect width="16" height="16" fill="white" transform="translate(2 2)"/>
</clipPath>
</defs>
</svg>
